<svg width="155" height="153" viewBox="0 0 155 153" fill="none" xmlns="http://www.w3.org/2000/svg">
<path d="M77.45 152.63C119.904 152.63 154.32 118.541 154.32 76.49C154.32 34.439 119.904 0.349976 77.45 0.349976C34.9958 0.349976 0.579956 34.439 0.579956 76.49C0.579956 118.541 34.9958 152.63 77.45 152.63Z" fill="#4787EF"/>
<path d="M122.77 76.29V78.49C122.903 86.5629 121.067 94.5466 117.42 101.75C113.957 108.709 108.466 114.456 101.67 118.23C94.6297 121.976 86.7643 123.901 78.79 123.83H47.26V76.13H57.67L57.75 113.23H78.47C84.7023 113.384 90.8611 111.857 96.3 108.81C101.285 106.038 105.322 101.833 107.89 96.74C110.732 91.0779 112.198 84.8253 112.17 78.49V76.29H122.77Z" fill="#7EAFE0"/>
<path d="M112.19 73.56V76.31H102.34V73.86C102.34 65.24 100.02 58.71 96.12 53.96C92.22 49.21 86.29 46.83 79.12 46.83H67.72V76.31H57.72V38.81H78.86C84.9374 38.6346 90.9482 40.114 96.25 43.09C101.298 45.9047 105.39 50.1635 108 55.32C111 60.67 112.19 66.73 112.19 73.56Z" fill="white"/>
<path d="M122.75 73.63V76.28H112.2C112.2 76.28 112.59 64.62 107.98 55.35C105.485 50.1757 101.39 45.9432 96.3 43.28C91.0304 40.2951 85.0551 38.7823 79 38.9H57.7V76.28H47.29V28.59H79.29C87.67 28.59 95.46 30.36 102.04 34.19C108.869 37.9564 114.398 43.7016 117.9 50.67C121.085 57.9063 122.736 65.7238 122.75 73.63Z" fill="#7DC7F4"/>
<path d="M112.18 76.35V78.54C112.274 84.8838 110.801 91.1527 107.89 96.79C105.406 101.942 101.347 106.169 96.3 108.86C91.25 111.8 85.83 113.27 78.47 113.27H57.67V76.27H67.67V105.27H78.1301C85.8634 105.27 91.8067 102.913 95.9601 98.2C100.12 93.49 102.3 86.72 102.3 78.2V76.31L112.18 76.35Z" fill="#D4EFFC" fill-opacity="0.81"/>
</svg>
